<?xml version="1.0" encoding="utf-8"?>
<!-- Generator: Adobe Illustrator 16.2.1, SVG Export Plug-In . SVG Version: 6.00 Build 0)  -->
<!DOCTYPE svg PUBLIC "-//W3C//DTD SVG 1.1//EN" "http://www.w3.org/Graphics/SVG/1.1/DTD/svg11.dtd">
<svg version="1.1" id="Layer_1" xmlns="http://www.w3.org/2000/svg" xmlns:xlink="http://www.w3.org/1999/xlink" x="0px" y="0px"
	 width="150px" height="150px" viewBox="0 0 864 864" enable-background="new 0 0 864 864" xml:space="preserve">
<path fill="#996644" d="M606.063,208.57c-11.311,0-22.385,1.092-33.157,3.128c-7.589,1.159-15.281,2.798-23.068,5.001
	c0.013,0.131,0.048,0.257,0.064,0.388c-0.735-0.083-1.155-0.127-1.155-0.127c-12.725,3.843-23.339,9.245-32.84,15.856
	c-1.81,1.04-27.612,24.442-38.715,37.27c-14.756,17.062-19.158,38.123-27.172,59.104c-8.12,21.261-24.195,38.483-33.114,59.17
	c-7.088,16.463,13.221,48.768,12.276,66.426c-0.552,10.344-3.862,26.375-1.464,36.293c2.214,9.176,0.988,23.298,6.152,31.367
	c-6.779,7.263-11.447,13.769-15.813,20.167c26.108,37.166,111.915,82.162,165.45,83.132c7.402,0.933,14.924,1.447,22.556,1.447
	c106.62,0,193.056-93.713,193.056-209.312S712.684,208.57,606.063,208.57z"/>
<path fill="#CC946E" d="M564.951,572.784c-8.98,0-18.268-0.489-27.604-1.453c-0.084-0.008-0.168-0.014-0.254-0.015
	c-31.168-0.462-73.219-10.95-115.483-28.791c3.677-5.329,8.143-11.446,14.366-18.113c0.897-0.961,1.029-2.409,0.32-3.518
	c-2.93-4.578-3.576-11.8-4.2-18.783c-0.377-4.22-0.733-8.205-1.578-11.707c-1.567-6.483-0.454-16.27,0.529-24.903
	c0.434-3.81,0.844-7.408,1.012-10.561c0.431-8.06-3.047-18.327-6.729-29.197c-4.629-13.665-9.416-27.795-5.778-36.243
	c4.103-9.517,9.923-18.542,15.551-27.271c6.491-10.067,13.203-20.477,17.608-32.011c1.918-5.021,3.643-10.08,5.311-14.973
	c5.377-15.777,10.457-30.679,21.35-43.274c10.762-12.434,35.86-35.218,38.051-36.706c0.072-0.041,0.062-0.037,0.131-0.084
	c9.734-6.774,20.033-11.78,31.468-15.293l0.56,0.062c0.107,0.012,0.215,0.018,0.322,0.018c0.766,0,1.506-0.306,2.051-0.857
	c0.004-0.005,0.009-0.01,0.014-0.014c7-1.923,14.184-3.453,21.374-4.551c0.034-0.005,0.067-0.011,0.101-0.017
	c10.805-2.042,21.78-3.078,32.622-3.078c100.84,0,184.165,85.433,189.858,194.572c-10.77,46.338-39.454,88.542-80.803,118.871
	C673.016,555.776,619.686,572.784,564.951,572.784z"/>
<path fill="#996644" d="M225.36,207.469c2.437-0.008,4.851-0.056,7.24-0.163c22.997-1.028,46.081-4.581,69.117-2.678
	c52.971,4.373,108.823,31.331,140.377,74.991c31.037,42.949,34.008,91.649,29.172,142.817c-2.443,25.887-4.811,51.765-6.191,77.735
	c-1.158,21.924-13.662,28.323-29.593,41.484c-8.105,6.703-15.948,17.638-24.537,22.632l-58.258,33.867
	c0,0-28.426,16.244-28.45,16.258c-5.057,2.893-21.695-0.751-27.338-0.945c-12.932-0.443-25.871-0.746-38.786-1.479
	c-28.458-1.62-57.456-5.537-82.953-19.124c-17.154-9.141-40.961-17.618-55.646-30.466c-10.502-9.188-18.075-27.99-25.664-39.921
	c-10.754-16.899-26.623-36.031-32.624-55.297c-6.779-21.782-5.704-47.026-9.673-69.51c-4.48-25.373,11.57-50.382,21.199-72.958
	c4.5-10.566,8.589-21.509,13.794-31.746c6.231-12.252,17.043-17.996,26.442-28.057c6.755-7.232,12.225-15.344,17.583-23.628
	c9.558-14.765,17.758-28.438,36.103-32.328C185.399,204.981,205.975,207.524,225.36,207.469z"/>
<path fill="#FFFFFE" d="M199.529,232.466c60.076-13.349,142.569-22.176,194.372,18.003c16.663,12.923,24.529,31.038,36.126,48.156
	c8.755,12.923,18.814,21.199,21.068,36.654c2.691,18.492,11.686,39.052,11.559,57.548c-0.057,9.12-4.486,18.594-6.906,27.255
	c-8.805,31.578-15.893,64.589-23.735,95.959l-41.001,39.683c0,0-54.13,23.76-54.233,23.808c-18.861,8.282-47.581,9.128-67.87,11.76
	c-28.395,3.688-58.194,4.497-85.311-6.064c-33.134-12.907-59.187-42.033-78.889-70.693c-21.168-30.8-34.314-65.243-33.056-102.965
	c1.33-39.766,10.22-85.493,31.865-119.31C125.522,257.896,160.935,241.043,199.529,232.466z"/>
<path fill="#ECEBE0" d="M399.394,357.854c-11.494-29.024-35.842-54.729-62.172-71.053c-29.93-18.555-72.339-21.11-106.26-13.425
	c-12.198,2.764-25.1,8.365-35.99,14.435c-38.298,21.348-62.758,65.249-69.754,107.531c-6.606,39.925,7.123,81.704,33.857,111.746
	c13.265,14.905,29.804,26.341,48.327,33.72c15.442,6.151,31.5,10.833,48.01,12.981c16.245,2.113,36.015-0.573,51.75-4.697
	c60.277-15.799,102.425-75.662,102.425-137.214C409.587,394.096,405.931,374.362,399.394,357.854z M324.172,415.304
	c-12.656,16.352-39.799,18.415-58.719,15.557c-10.167-1.536-22.554-5.905-30.314-12.985c-8.165-7.451-11.641-18.924-10.74-29.721
	c1.49-17.861,19.848-28.249,35.318-33.219c13.984-4.493,29.511-3.21,42.888,2.687C324.064,367.083,340.312,394.453,324.172,415.304z
	"/>
<path fill="#E2E1D7" d="M178.239,327.132c10.89-6.07,23.792-11.671,35.99-14.435c33.92-7.686,76.329-5.13,106.26,13.425
	c26.33,16.323,50.678,42.029,62.172,71.053c6.537,16.508,10.194,36.241,10.194,54.024c0,12.359-1.703,24.652-4.908,36.533
	c13.817-22.557,21.702-48.852,21.702-75.465c0-17.782-3.657-37.516-10.194-54.023c-11.494-29.023-35.842-54.729-62.172-71.053
	c-29.931-18.555-72.339-21.11-106.26-13.425c-12.198,2.764-25.1,8.364-35.99,14.435c-32.394,18.057-54.884,52.25-65.283,87.949
	C141.716,355.906,158.052,338.384,178.239,327.132z"/>
<path fill="#BC845E" d="M606.063,211.45c-10.842,0-21.817,1.036-32.622,3.078c-0.033,0.006-0.066,0.012-0.101,0.017
	c-7.19,1.098-14.374,2.627-21.374,4.551c-0.005,0.004-0.01,0.009-0.014,0.014c-0.545,0.552-1.285,0.857-2.051,0.857
	c-0.107,0-0.215-0.006-0.322-0.018l-0.56-0.062c-11.435,3.513-21.733,8.519-31.468,15.293c-0.068,0.047-0.059,0.043-0.131,0.084
	c-2.19,1.487-27.289,24.271-38.051,36.706c-10.893,12.595-15.973,27.498-21.35,43.274c-1.668,4.893-3.393,9.952-5.311,14.973
	c-4.405,11.534-11.117,21.944-17.608,32.011c-5.628,8.729-11.448,17.754-15.551,27.271c-3.637,8.448,1.149,22.578,5.778,36.243
	c3.682,10.87,7.16,21.138,6.729,29.197c-0.168,3.152-0.578,6.751-1.012,10.561c-0.982,8.634-2.096,18.42-0.529,24.903
	c0.845,3.502,1.201,7.487,1.578,11.707c0.625,6.983,1.271,14.205,4.2,18.783c0.709,1.108,0.577,2.557-0.32,3.518
	c-6.223,6.667-10.688,12.784-14.366,18.113c42.264,17.841,84.315,28.329,115.483,28.791c0.086,0.001,0.17,0.007,0.254,0.015
	c9.336,0.964,18.623,1.453,27.604,1.453c54.734,0,108.064-17.008,150.168-47.891c41.349-30.329,70.033-72.533,80.803-118.871
	C790.229,296.883,706.903,211.45,606.063,211.45z M602,385.555c-31.197,0-56.49-22.132-56.49-49.434
	c0-27.296,25.293-49.427,56.49-49.427c31.201,0,56.494,22.131,56.494,49.427C658.494,363.423,633.201,385.555,602,385.555z"/>
<path fill="#AD754E" d="M606.063,208.57c-11.311,0-22.385,1.092-33.157,3.128c-7.589,1.159-15.281,2.798-23.068,5.001
	c0.013,0.131,0.048,0.257,0.064,0.388c-0.735-0.083-1.155-0.127-1.155-0.127c-12.725,3.843-23.339,9.245-32.84,15.856
	c-1.81,1.04-27.612,24.442-38.715,37.27c-14.756,17.062-19.158,38.123-27.172,59.104c-8.12,21.261-24.195,38.483-33.114,59.17
	c-7.088,16.463,13.221,48.768,12.276,66.426c-0.552,10.344-3.862,26.375-1.464,36.293c2.214,9.176,0.988,23.298,6.152,31.367
	c-6.779,7.263-11.447,13.769-15.813,20.167c0.52,0.739,1.071,1.482,1.637,2.228c39.442,16.734,83.583,28.854,117.357,29.354
	c9.155,0.945,18.46,1.468,27.899,1.468c115.408,0,211.624-72.732,233.868-169.386C793.264,296.078,709.092,208.57,606.063,208.57z
	 M604.028,445.658c-53.869,0-97.54-38.215-97.54-85.355c0-47.132,43.671-85.345,97.54-85.345c53.875,0,97.547,38.213,97.547,85.345
	C701.575,407.443,657.903,445.658,604.028,445.658z"/>
<path fill="#845439" d="M747.084,514.319c5.363,13.914-3.394,30.243-19.539,36.468c-16.155,6.226-33.602-0.013-38.965-13.929
	c-5.362-13.916,3.394-30.243,19.548-36.472C724.273,494.168,741.722,500.403,747.084,514.319z"/>
</svg>
