<?xml version="1.0"?>
<svg width="200" height="300" viewBox="0 0 250 250" xmlns="http://www.w3.org/2000/svg" xmlns:svg="http://www.w3.org/2000/svg">
 <g>
  <title>Layer 1</title>
  <path id="svg_3" d="m197.155903,68.980331c-4.29,-7.982 -9.86,-15.437 -16.232,-21.517c-12.768,-12.184 -27.116,-17.549 -40.403,-15.108c-12.585,2.312 -23.822,11.279 -33.469,26.676c-0.369,-0.053 -0.746,-0.084 -1.127,-0.084c-0.493,0 -0.991,0.047 -1.478,0.139c-0.029,0.006 -0.059,0.008 -0.089,0.008c-0.098,0 -0.194,-0.03 -0.276,-0.088c-0.106,-0.076 -0.178,-0.191 -0.196,0.32c-0.072,-0.483 -0.186,-0.956 -0.339,-1.405c-0.194,-0.567 -0.449,-1.099 -0.754,-1.594c1.116,-1.932 2.33,-3.855 3.641,-5.76l-2.908,-2.827l4.089,1.147c1.289,-1.792 2.663,-3.562 4.103,-5.307l-2.042,-4.185l3.414,2.556c3.452,-4.016 7.271,-7.869 11.35,-11.461l-2.062,-4.757l3.861,3.207c2.741,-2.32 5.588,-4.518 8.508,-6.567l1.482,-1.023c2.304,-1.563 4.649,-3.029 7.023,-4.389l1.305,-0.736c7.382,-4.087 14.997,-7.113 22.402,-8.659c-5.488,-2.394 -11.484,-3.938 -17.598,-4.611c-7.533,-1.158 -15.359,-1.188 -22.669,0.015c-14.646,2.411 -25.513,9.334 -30.597,19.496c-4.146,8.282 -4.472,18.389 -1.003,30.141c-0.549,0.065 -1.092,0.183 -1.622,0.363c-1.971,0.672 -3.506,2.049 -4.422,3.752c-11.403,-11.474 -23.132,-17.285 -34.966,-17.285c-13.51,0 -26.652,7.87 -37.01,22.159c-5.168,7.132 -9.3,15.469 -12.077,24.095c-2.536,6.857 -4.084,14.055 -4.46,21.164c5.584,-7.051 12.854,-13.539 21.127,-19.211l-0.89,-3.819l2.367,2.823c2.708,-1.8 5.515,-3.514 8.402,-5.132l-2.789,-3.507l4.666,2.477c3.732,-2.016 7.585,-3.871 11.509,-5.551l-1.354,-5.813l3.96,4.725c5.99,-2.425 12.12,-4.436 18.225,-5.969l-0.9,-4.99l3.363,4.398c2.622,-0.604 5.235,-1.12 7.826,-1.54l0.955,-4.957l1.459,4.595c3.036,-0.424 6.034,-0.71 8.976,-0.86c-1.008,1.057 -1.688,2.357 -1.999,3.746c-11.551,-0.977 -21.061,1.191 -28.376,6.5c-9.678,7.024 -15.001,19.494 -14.991,35.116c0.006,7.796 1.381,15.917 3.875,23.541c1.748,6.23 4.381,12.191 7.809,17.479c0.334,-7.953 2.169,-16.381 5.146,-24.746l-4.4,-3.129l4.94,1.648c1.005,-2.698 4.159,-9.76 4.159,-9.76c1.627,-3.385 3.422,-6.716 5.359,-9.96l-3.994,-3.46l5.296,1.325c3.028,-4.852 6.375,-9.479 9.951,-13.751l-3.239,-3.106l4.696,1.402c1.564,-1.796 3.168,-3.524 4.806,-5.172l1.541,-1.513c1.07,-1.031 2.153,-2.024 3.248,-2.983c0.62,0.155 1.266,0.239 1.926,0.239l0,0c0.869,0 1.707,-0.229 2.562,-0.427c2.059,-0.475 3.939,-2.414 4.497,-3.134c0.173,-0.223 0.382,-0.493 0.648,-0.824c0.092,-0.114 0.229,-0.18 0.374,-0.18c0.008,0 0.015,0 0.022,0.001c0.186,0.008 2.939,1.857 3.054,1.932c0.523,0.106 1.057,0.161 1.588,0.161c0.866,0 1.724,-0.143 2.55,-0.424c0.289,-0.099 0.567,-0.217 0.841,-0.345c1.767,1.459 3.51,3.011 5.219,4.656l1.54,1.514c1.639,1.647 3.242,3.376 4.807,5.172l4.696,-1.402l-3.239,3.106c3.576,4.273 6.923,8.899 9.952,13.751l1.301,2.135c1.938,3.244 3.732,6.576 5.359,9.96l4.629,0.651l-3.821,1.062c1.228,2.66 2.348,5.348 3.352,8.045l0.54,1.482c2.978,8.365 4.812,16.793 5.146,24.746c3.428,-5.287 6.06,-11.25 7.809,-17.48c2.495,-7.623 3.869,-15.744 3.875,-23.54c0.01,-15.621 -5.313,-28.092 -14.991,-35.116c-7.993,-5.801 -18.604,-7.855 -31.637,-6.151c-0.023,-0.781 -0.164,-1.563 -0.424,-2.324c-0.161,-0.472 -0.368,-0.918 -0.606,-1.342c2.736,-0.344 5.54,-0.581 8.399,-0.704l2.44,-0.081c2.624,-0.056 5.287,-0.02 7.975,0.101l2.513,-4.934l0.017,5.07c6.281,0.405 12.674,1.274 19.003,2.578l3.042,-5.362l-0.282,5.961c4.165,0.943 8.287,2.073 12.323,3.38l4.142,-3.279l-2.109,3.954c3.132,1.069 6.202,2.249 9.19,3.529l1.633,0.714c9.163,4.084 17.485,9.152 24.251,15.078c-1.656,-6.925 -4.481,-13.725 -8.214,-20.01z" fill="#B1D367"/>
  <path id="svg_4" d="m205.303797,88.737532c-9.524,-42.214 -62.233,-88.759 -98.944,-30.073c-0.178,-0.012 -0.358,-0.021 -0.539,-0.021c-0.494,0 -0.991,0.047 -1.476,0.139c-0.03,0.006 -0.06,0.008 -0.09,0.008c-0.098,0 -0.195,-0.03 -0.277,-0.088c-0.106,-0.076 -0.177,-0.191 -0.196,-0.32c-0.072,-0.483 -0.186,-0.956 -0.339,-1.405c-0.655,-1.922 -2,-3.462 -3.698,-4.396c5.945,-30.612 39.707,-44.391 67.165,-45.962c-31.889,-14.385 -86.655,-3.995 -72.357,45.102c-0.4,0.071 -0.797,0.17 -1.186,0.302c-1.787,0.609 -3.215,1.798 -4.15,3.283c-45.527,-45.461 -87.114,8.369 -88.816,50.662c16.734,-29.15 50.726,-58.518 87.6,-46.033c0.036,0.721 0.169,1.449 0.414,2.167l0.032,0.087c0.068,0.196 0.003,0.414 -0.162,0.54c-1.408,1.069 -2.375,2.538 -2.834,4.154c-50.852,-4.212 -51.862,53.003 -31.792,83.137c-2.972,-27.759 4.84,-63.553 33,-76.313c1.466,2.025 3.835,3.286 6.428,3.286c0,0 0,0 0,0c0.869,0 1.707,-0.229 2.562,-0.427c2.057,-0.475 3.938,-2.414 4.497,-3.134c0.173,-0.223 0.382,-0.493 0.648,-0.824c0.091,-0.114 0.229,-0.18 0.374,-0.18c0.007,0 0.015,0 0.022,0.001c0.186,0.008 2.94,1.857 3.055,1.932c0.523,0.106 1.057,0.161 1.587,0.161c0.867,0 1.725,-0.143 2.55,-0.424c1.659,-0.565 3.047,-1.643 4.009,-3.072c30.852,11.379 39.389,48.851 36.304,77.665c20.479,-30.748 19.012,-89.696 -34.963,-82.803c-0.057,-0.628 -0.188,-1.254 -0.397,-1.866c-0.615,-1.806 -1.837,-3.279 -3.392,-4.224c34.222,-19.843 73.446,3.069 95.361,28.939zm-197.799,-4.578c10.221,-29.863 37.484,-55.627 68.447,-36.14c-29.111,-13.892 -56.851,9.162 -68.447,36.14zm40.177,47.789c-8.205,-26.707 -2.068,-59.337 30.243,-61.476c-28.076,5.184 -35.963,36.122 -30.243,61.476zm46.557,-90.046c-3.003,-30.624 26.637,-41.433 52.947,-37.88c-24.656,-1.432 -52.438,10.756 -52.947,37.88zm60.432,87.554c5.719,-25.354 -2.168,-56.292 -30.244,-61.476c32.313,2.139 38.449,34.769 30.244,61.476zm38.995,-61.23c-16.279,-24.438 -47.728,-42.101 -73.85,-23.179c26.932,-24.76 58.401,-4.346 73.85,23.179z" fill="#94BF51"/>
  <path id="svg_2" d="m103.37188,262.126326c4.789,-12.553 7.685,-43.014 7.396,-78.102c-0.317,-38.664 -4.436,-78.387 -11.299,-108.981c-0.037,-0.165 -0.161,-0.297 -0.322,-0.344c-0.043,-0.013 -0.087,-0.019 -0.13,-0.019c-0.121,0 -0.239,0.047 -0.327,0.134c-0.862,0.852 -1.876,1.48 -3.016,1.869c-0.833,0.283 -1.696,0.428 -2.566,0.428c-3.404,0 -6.429,-2.166 -7.528,-5.39c-1.107,-3.248 -0.015,-6.825 2.718,-8.9c0.16,-0.122 0.224,-0.333 0.157,-0.524l-0.032,-0.087c-1.416,-4.152 0.811,-8.68 4.961,-10.096c0.833,-0.284 1.696,-0.427 2.567,-0.427c3.403,0 6.429,2.165 7.527,5.389c0.154,0.45 0.268,0.923 0.339,1.407c0.019,0.125 0.088,0.237 0.191,0.311c0.079,0.056 0.173,0.086 0.269,0.086c0.029,0 0.058,-0.003 0.087,-0.008c0.487,-0.093 0.984,-0.14 1.479,-0.14c3.403,0 6.427,2.165 7.526,5.388c0.686,2.011 0.547,4.168 -0.39,6.075c-0.938,1.906 -2.561,3.334 -4.571,4.02c-0.827,0.282 -1.687,0.425 -2.555,0.425c-0.559,0 -1.121,-0.06 -1.671,-0.178c-0.032,-0.007 -0.065,-0.01 -0.098,-0.01c-0.133,0 -0.261,0.057 -0.351,0.16c-0.111,0.127 -0.144,0.306 -0.085,0.465c13.593,37.007 22.48,78.062 26.416,122.025c3.024,33.779 2.08,57.912 1.668,65.162l-28.36,-0.138z" fill="#BA9879"/>
  <path id="svg_5" d="m131.10303,197.060327c-3.943,-44.047 -12.835,-85.098 -26.443,-122.144c1.439,0.309 2.978,0.249 4.474,-0.262c4.4,-1.5 6.751,-6.283 5.25,-10.684c-1.37,-4.019 -5.478,-6.326 -9.531,-5.554c-0.074,-0.498 -0.191,-0.996 -0.359,-1.489c-1.5,-4.4 -6.284,-6.751 -10.684,-5.251c-4.4,1.5 -6.751,6.284 -5.251,10.684c0.01,0.031 0.023,0.061 0.034,0.092c-2.809,2.133 -4.077,5.898 -2.876,9.419c1.5,4.4 6.283,6.751 10.684,5.251c1.243,-0.423 2.317,-1.113 3.192,-1.978c6.881,30.675 10.968,69.872 11.288,108.883c0.295,35.928 -2.68,66.436 -7.612,78.559l29.479,0.143c0.361,-6.111 1.472,-30.847 -1.645,-65.669zm-19.181,61.65c3.549,-12.221 5.484,-38.439 4.992,-68.955c-0.505,-31.225 -3.459,-62.555 -8.254,-88.557c12.573,33.756 17.522,126.481 3.262,157.512z" fill="#A8825A"/>
  <path id="svg_6" d="m105.527529,75.218426c1.197,0.078 2.435,-0.092 3.621,-0.497c1.316,-0.448 2.447,-1.193 3.349,-2.131c0.408,-2.404 0.209,-5.188 -0.708,-7.97c-0.794,-2.411 -2.018,-4.479 -3.462,-6.06c-1.097,-0.255 -2.254,-0.299 -3.409,-0.087c0.362,2.734 -0.608,5.444 -2.518,7.303c0.002,-0.01 0.004,-0.021 0.006,-0.03c0,0 0,0 0,0c0.045,-0.201 0.084,-0.405 0.12,-0.612c0.011,-0.062 0.021,-0.125 0.032,-0.188c0.034,-0.215 0.064,-0.432 0.088,-0.653c0.002,-0.015 0.003,-0.03 0.004,-0.046c0.023,-0.218 0.04,-0.439 0.053,-0.663c0.003,-0.049 0.005,-0.098 0.008,-0.147c0.012,-0.24 0.019,-0.482 0.019,-0.728c0,-0.008 0,-0.016 0,-0.024c0,-0.249 -0.008,-0.5 -0.021,-0.753c-0.001,-0.024 -0.001,-0.049 -0.003,-0.073c-0.045,-0.815 -0.153,-1.65 -0.329,-2.495c0,0 0,0 0,-0.001c-0.142,-0.682 -0.325,-1.37 -0.556,-2.058c-0.766,-2.281 -1.931,-4.247 -3.308,-5.776c-1.501,-0.363 -3.119,-0.32 -4.688,0.215c-4.4,1.5 -6.751,6.284 -5.251,10.684c0.011,0.031 0.023,0.061 0.034,0.092c-2.809,2.133 -4.077,5.898 -2.876,9.419c1.5,4.4 6.284,6.751 10.684,5.251c0.972,-0.331 1.84,-0.79 2.592,-1.38c15.686,70.132 13.087,165.89 3.187,187.558l31.241,0.15c0.581,-9.041 5.086,-98.036 -27.909,-188.3zm25.472,159.456l-20.04,-0.014c0.515,-4.902 0.942,-10.209 1.275,-15.84l18.349,2.576c0.21,4.758 0.341,9.2 0.416,13.278zm-0.566,-16.446l-18.026,-2.529c0.239,-4.627 0.417,-9.455 0.527,-14.443l16.272,-1.256c0.545,6.443 0.943,12.545 1.227,18.228zm-1.499,-21.334l-15.94,1.23c0.075,-4.568 0.094,-9.26 0.054,-14.047c-0.02,-2.375 -0.054,-4.752 -0.101,-7.127l14.028,1.666c0.749,6.032 1.404,12.126 1.959,18.278zm-2.362,-21.462l-13.696,-1.625c-0.125,-4.982 -0.309,-9.953 -0.55,-14.898l11.516,-1.881c1.011,6.068 1.922,12.2 2.73,18.404zm-3.253,-21.475l-11.156,1.822c-0.417,-7.732 -0.976,-15.385 -1.669,-22.895l9.005,1.387c1.396,6.475 2.669,13.04 3.82,19.686zm-23.367,-79.21c0.337,-2.162 0.205,-4.674 -0.475,-7.149c0,0 0.001,0 0.002,-0.001c-0.083,-0.303 -0.173,-0.608 -0.272,-0.912c-0.096,-0.292 -0.199,-0.578 -0.307,-0.86c-0.04,-0.104 -0.083,-0.205 -0.124,-0.307c-0.069,-0.172 -0.139,-0.342 -0.213,-0.51c-0.056,-0.129 -0.114,-0.254 -0.172,-0.38c-0.061,-0.13 -0.123,-0.26 -0.186,-0.388c-0.072,-0.145 -0.144,-0.288 -0.218,-0.429c-0.048,-0.09 -0.097,-0.178 -0.146,-0.267c-0.667,-1.213 -1.441,-2.293 -2.292,-3.204c1.958,0.411 3.742,1.524 5.009,3.163c0.603,0.806 1.078,1.74 1.417,2.727c0.812,2.357 0.426,4.918 -0.657,6.979c0,0 0,0 0,0c0,0.001 -0.001,0.003 -0.002,0.005c-0.025,0.048 -0.052,0.096 -0.078,0.144c-0.013,0.021 -0.022,0.04 -0.039,0.064c-0.334,0.517 -0.744,0.98 -1.247,1.325zm1.682,-0.464c0.19,0.14 3.515,8.358 4.956,12.665l-2.408,-0.181c-0.842,-4.471 -1.598,-8.311 -2.548,-12.484zm3.133,15.652l2.881,0.217c1.922,5.905 3.732,11.902 5.424,17.993l-5.297,0.865c-0.898,-6.564 -1.902,-12.942 -3.008,-19.075zm5.424,39.75c-0.584,-5.973 -1.253,-11.847 -2.003,-17.586l5.711,-0.933c1.76,6.515 3.391,13.13 4.887,19.843l-8.595,-1.324zm20.526,130.948l-24.391,-0.117c0.881,-2.785 1.689,-6.176 2.417,-10.084l22.198,3.977c-0.068,2.605 -0.152,4.698 -0.224,6.224zm0.294,-9.379l-21.73,-3.891c0.487,-2.955 0.932,-6.162 1.332,-9.588l20.434,0.014c0.062,5.195 0.032,9.717 -0.036,13.465z" fill="#916C40"/>
 </g>
</svg>