<?xml version="1.0" encoding="utf-8"?>
<!-- Generator: Adobe Illustrator 16.2.1, SVG Export Plug-In . SVG Version: 6.00 Build 0)  -->
<!DOCTYPE svg PUBLIC "-//W3C//DTD SVG 1.1//EN" "http://www.w3.org/Graphics/SVG/1.1/DTD/svg11.dtd">
<svg version="1.1" id="Layer_1" xmlns="http://www.w3.org/2000/svg" xmlns:xlink="http://www.w3.org/1999/xlink" x="0px" y="0px"
	 width="150px" height="150px" viewBox="240 180 300 500" enable-background="new 0 0 864 864" xml:space="preserve">
<ellipse fill="#E5E0DA" cx="409.458" cy="634.139" rx="113.065" ry="20.017"/>
<path fill="#FFD473" d="M505.215,433.414c-0.815-4.036-3.07-15.591-10.19-20.558c-2.574-2.279-6.474-4.338-11.272-6.17
	c-1.475-0.647-3.018-1.277-4.629-1.89c-17.523-6.66-40.84-10.327-65.651-10.327c-24.811,0-48.126,3.667-65.648,10.327
	c-16.537,6.285-25.959,14.465-26.745,23.146c-0.033,0.034-0.065,0.066-0.099,0.1c-18.464,46.674-21.082,144.797,13.995,186.201
	c41.856,49.407,130.936,39.72,159.283-12.864c15.508-28.767,16.699-71.472,17.086-102.962
	C511.529,483.322,510.805,454.284,505.215,433.414z"/>
<path fill="#FFC550" d="M505.215,433.414c0.471-1.414-3.07-15.591-10.19-20.558c-2.574-2.279-6.474-4.338-11.272-6.17
	c-1.475-0.647-3.018-1.277-4.629-1.89c-17.523-6.66-40.84-10.327-65.651-10.327c-24.811,0-48.126,3.667-65.648,10.327
	c-16.537,6.285-25.959,14.465-26.745,23.146c-0.033,0.034-0.065,0.066-0.099,0.1c-9.323,23.567-14.602,60.251-13.032,96.128
	c3.123,30.475,11.92,59.045,28.284,77.023c37.339,41.021,109.308,41.682,150.804,11.1c2.706-3.402,5.132-7.039,7.222-10.914
	c15.508-28.767,16.699-71.472,17.086-102.962C511.529,483.322,510.805,454.284,505.215,433.414z"/>
<path fill="#FFD473" d="M506.707,429.123c0,19.564-41.741,35.43-93.235,35.43c-51.491,0-93.232-15.865-93.232-35.43
	c0-19.569,41.741-35.434,93.232-35.434C464.966,393.689,506.707,409.554,506.707,429.123z"/>
<path fill="#F9B132" d="M467.526,606.543c-21.321-0.001-44.764-5.11-67.803-14.779c-15.112,4.726-30.359,7.224-44.102,7.224
	c-4.069,0-8.042-0.218-11.808-0.646c-0.2-0.023-0.35-0.195-0.345-0.397c0.005-0.201,0.163-0.365,0.364-0.379
	c14.705-0.945,31.042-4.272,47.307-9.63c-12.186-5.76-23.505-12.529-33.659-20.13c-4.417,0.493-8.772,0.744-12.947,0.744
	c-3.721,0-7.354-0.199-10.8-0.592c-0.201-0.023-0.351-0.195-0.345-0.396c0.005-0.202,0.163-0.366,0.364-0.38
	c6.217-0.399,12.799-1.27,19.578-2.589c-16.696-13.307-28.856-28.072-35.193-42.74c-0.079-0.184-0.006-0.397,0.168-0.494
	c0.06-0.033,0.125-0.049,0.189-0.049c0.124,0,0.245,0.059,0.32,0.166c9.917,14.204,25.055,28.4,43.783,41.062
	c11.369-2.829,22.835-6.78,34.085-11.745c0.876-0.387,1.746-0.779,2.611-1.175c-9.583-5.331-18.404-11.351-26.232-17.903
	c-8.777,2.418-17.279,3.645-25.272,3.645c-2.686,0-5.308-0.144-7.794-0.427c-0.201-0.023-0.351-0.195-0.345-0.397
	c0.005-0.201,0.163-0.365,0.364-0.379c9.23-0.595,19.066-2.522,29.244-5.73c-11.83-10.625-20.64-22.166-25.498-33.412
	c-0.079-0.184-0.006-0.397,0.168-0.495c0.06-0.033,0.125-0.049,0.189-0.049c0.124,0,0.245,0.059,0.32,0.167
	c7.447,10.667,18.36,21.552,31.567,31.485c3.189-1.172,6.342-2.443,9.375-3.782c7.553-3.333,14.735-7.192,21.355-11.477
	c-10.957-8.754-18.94-18.462-23.105-28.104c-0.079-0.183-0.006-0.396,0.168-0.494c0.06-0.033,0.125-0.049,0.189-0.049
	c0.124,0,0.245,0.059,0.32,0.166c6.133,8.785,15.371,17.625,26.729,25.579c10.001-7.028,18.14-14.833,23.547-22.58
	c0.075-0.108,0.195-0.167,0.32-0.167c0.063,0,0.129,0.016,0.188,0.05c0.175,0.097,0.247,0.311,0.168,0.494
	c-3.676,8.512-10.707,17.088-20.348,24.828c7.655,5.019,15.999,9.532,24.806,13.418c0.246,0.109,0.492,0.213,0.736,0.317
	l0.338,0.145c10.098-8.065,18.224-16.459,24.152-24.95c0.075-0.108,0.196-0.167,0.319-0.167c0.064,0,0.13,0.016,0.189,0.049
	c0.175,0.098,0.247,0.312,0.168,0.495c-3.854,8.923-10.601,18.17-19.528,26.773c10.609,4.205,21.204,7.245,31.506,9.039
	c3.861-4.118,7.261-8.271,10.107-12.349c0.074-0.107,0.195-0.166,0.319-0.166c0.063,0,0.13,0.016,0.188,0.049
	c0.176,0.098,0.248,0.312,0.168,0.495c-1.783,4.13-4.146,8.355-7.03,12.569c3.278,0.476,6.456,0.814,9.454,1.007
	c0.201,0.014,0.359,0.178,0.365,0.38c0.004,0.201-0.146,0.373-0.346,0.396c-2.727,0.311-5.642,0.468-8.666,0.468
	c-0.777,0-1.573-0.011-2.369-0.031c-6.584,9.038-15.252,17.646-25.771,25.597c13.248,3.678,26.078,5.937,38.147,6.713
	c0.201,0.014,0.36,0.178,0.364,0.38c0.005,0.202-0.145,0.373-0.345,0.396c-3.851,0.439-7.916,0.661-12.081,0.661
	c-10.15,0-20.941-1.29-32.078-3.836c-8.893,6.101-18.641,11.505-28.978,16.066c-2.691,1.188-5.523,2.353-8.43,3.468
	c24.013,9.759,48.265,15.658,70.199,17.069c0.201,0.014,0.359,0.178,0.365,0.38c0.004,0.201-0.145,0.373-0.346,0.396
	C476.592,606.297,472.113,606.543,467.526,606.543C467.527,606.543,467.527,606.543,467.526,606.543z M368.125,566.165
	c10.445,6.644,21.738,12.698,33.583,18.003c3.855-1.478,7.602-3.018,11.138-4.578c9.091-4.011,17.871-8.546,26.111-13.484
	c-8.088-2.315-16.162-5.243-24.012-8.707c-2.749-1.212-5.583-2.548-8.427-3.972c-1.515,0.719-2.874,1.343-4.148,1.904
	C391.073,560.315,379.557,563.959,368.125,566.165z M414.642,549.314c2.252,1.074,4.49,2.104,6.664,3.062
	c8.069,3.562,16.366,6.703,24.665,9.339c11.176-7.289,20.975-15.168,29.143-23.43c-10.657-0.807-22.143-3.459-33.293-7.691
	C433.881,537.553,424.741,543.848,414.642,549.314z M380.487,529.396c8.284,5.877,17.333,11.364,26.909,16.319
	c10.304-5.222,19.901-11.11,28.537-17.51c-0.297-0.125-0.594-0.249-0.89-0.38c-8.831-3.897-17.041-8.602-24.408-13.986
	c-6.382,4.593-13.468,8.621-21.065,11.973C386.592,527.126,383.54,528.33,380.487,529.396z"/>
<path fill="#FFFFFF" d="M412.542,450.689c-19.767,0-38.339-2.314-52.296-6.517c-13.473-4.057-21.2-9.549-21.2-15.068
	c0-5.519,7.727-11.01,21.2-15.067c13.958-4.202,32.53-6.517,52.296-6.517c19.766,0,38.338,2.315,52.297,6.517
	c13.474,4.057,21.2,9.548,21.2,15.067c0,5.519-7.727,11.011-21.2,15.068C450.881,448.375,432.308,450.689,412.542,450.689z"/>
<path fill="#FFE39C" d="M412.542,406.742c-41.023,0-74.275,10.013-74.275,22.363c0,12.352,33.251,22.364,74.275,22.364
	c41.021,0,74.276-10.012,74.276-22.364C486.818,416.755,453.562,406.742,412.542,406.742z M411.982,446.78
	c-33.396,0-60.466-6.862-60.466-15.327c0-3.485,4.592-6.698,12.322-9.273c-3.159,1.978-4.912,4.157-4.912,6.446
	c0,9.019,27.142,16.328,60.626,16.328c15.428,0,29.508-1.553,40.209-4.108C448.699,444.457,431.412,446.78,411.982,446.78z"/>
<path fill="#FF7687" d="M404.504,435.557c-3.212,0.4-5.545-0.095-6.054-0.444l-0.869-6.95l-0.049,0.006l-13.56-108.802
	L371.23,217.491l-0.015-0.492l-2.429-19.486c0.384-0.476,2.553-1.597,5.749-1.997c3.195-0.398,5.574,0.155,6.063,0.521l2.498,19.974
	l0.045-0.006l12.795,102.677l13.506,108l0.013,0.492l0.806,6.463C409.856,434.101,407.715,435.155,404.504,435.557z"/>
<path fill="#F75772" d="M383.551,215.459l-0.046,0.005l-2.457-19.65c-0.468-0.653-3.285-1.197-6.573-0.786
	c-3.289,0.41-5.885,1.63-6.178,2.377l2.449,19.652l-0.045,0.005l12.803,102.361l13.621,109.29l0.048-0.006l0.831,6.638
	c0.463,0.614,3.273,1.108,6.562,0.697c3.288-0.41,5.892-1.58,6.189-2.288l-0.827-6.639l0.048-0.006l-13.567-108.486L383.551,215.459
	z M403.826,431.089l-2.61,0.326L372.24,199.322l2.61-0.326L403.826,431.089z"/>
<path fill="#96CC50" d="M422.913,442.102c-3.227-0.237-5.426-1.076-5.86-1.462l0.443-6.03l-0.049-0.004l6.977-94.407l6.486-88.404
	l0.077-0.418l1.25-16.908c0.466-0.333,2.805-0.892,6.016-0.656c3.212,0.237,5.443,1.132,5.855,1.53l-1.271,17.332l0.045,0.004
	l-6.584,89.092l-6.88,93.719l-0.08,0.419l-0.414,5.607C428.439,441.832,426.14,442.339,422.913,442.102z"/>
<path fill="#7EBA38" d="M443.385,252.289l-0.047-0.003l1.252-17.052c-0.337-0.635-3.001-1.601-6.306-1.844
	c-3.306-0.244-6.082,0.321-6.509,0.9l-1.26,17.051l-0.046-0.003l-6.519,88.826l-7.007,94.83l0.049,0.003l-0.422,5.762
	c0.34,0.602,3.007,1.523,6.312,1.768c3.304,0.244,6.077-0.278,6.503-0.824l0.426-5.76l0.047,0.003l6.91-94.14L443.385,252.289z
	 M423.08,438.203l-2.623-0.192l14.833-201.394l2.623,0.193L423.08,438.203z"/>
<path fill="#EFCA9C" d="M427.831,277.268c-0.657-2.449-1.282-4.78-1.813-6.355c-8.947,0.846-98.066,9.358-115.515,11.024
	l-8.857-17.118l-7.397,3.827l9.252,17.882l-70.197,69.569c10.952,13.381,40.472,19.61,46.638,19.58
	c23.185-0.116,42.605-3.257,59.372-9.603c1.493-0.565,2.963-1.169,4.419-1.789l37.029,71.265c3.134,0.025,6.269,0.049,9.403,0.049
	l-38.885-74.853c0.037-0.02,0.077-0.038,0.114-0.057c51.933-26.979,69.79-56.039,77.415-68.449c0.905-1.473,1.702-2.77,2.405-3.823
	C430.02,285.431,428.86,281.106,427.831,277.268z"/>
<path fill="#4FD3CC" d="M307.453,281.277c0,0,119.206-11.387,119.209-11.376c1.394,3.665,3.484,13.566,5.619,18.626
	c-6.522,9.484-21.434,42.343-80.453,73.002c-21.94,11.398-47.283,14.971-71.883,15.094c-6.917,0.034-37.345-6.702-47.91-20.604
	L307.453,281.277z"/>
<path fill="#27C1B9" d="M268.206,384.77l32.479-78.148c-1.133-0.058-2.184-0.21-3.167-0.454l-51.933,69.391l-14.612-10.473
	l61.573-61.385c-0.768-0.656-1.42-1.406-1.944-2.24c-2.027-3.218-2.067-7.393-0.114-11.756c1.909-4.265,5.511-8.219,10.142-11.135
	c4.445-2.798,9.387-4.339,13.916-4.339c4.953,0,8.985,1.892,11.062,5.191c0.827,1.314,1.325,2.799,1.482,4.422
	c36.683-2.165,104.836-6.525,105.525-6.569l0.545-0.035l5.854,16.742l-112.167-6.22c-0.368,1.747-1.064,3.511-2.074,5.263
	l90.563,29.582l-21.928,15.824l-72.264-40.628c-0.605,0.629-1.247,1.236-1.917,1.813l32.264,66.202l-23.059,8.912l-14.495-71.455
	c-2.389,1.308-4.86,2.251-7.365,2.81l-18.749,79.82L268.206,384.77z"/>
<polygon fill="#EFCA9C" points="459.336,437.306 450.926,435.78 483.236,257.502 490.063,245.175 491.647,259.026 "/>
<path fill="#FF5A8D" d="M469.123,327.274c-15.943-4.988-24.856-22.018-19.868-37.961c4.989-15.943,22.017-24.857,37.962-19.869
	c15.943,4.988,24.855,22.018,19.868,37.961C502.097,323.35,485.068,332.263,469.123,327.274z"/>
<path fill="#F92D63" d="M487.468,268.642c-16.413-5.135-33.88,4.007-39.016,20.42s4.008,33.88,20.42,39.015
	s33.88-4.007,39.015-20.42C513.022,291.245,503.88,273.777,487.468,268.642z M479.289,288.83c-8.349-1.234-14.613-5.643-13.99-9.848
	c0.621-4.205,7.893-6.612,16.242-5.378c8.348,1.234,14.611,5.643,13.99,9.848C494.91,287.656,487.639,290.064,479.289,288.83z"/>
<path fill="#FF5A8D" d="M457.282,401.28c-15.944-4.989-24.856-22.019-19.868-37.962c4.988-15.943,22.018-24.856,37.962-19.868
	s24.856,22.018,19.868,37.961S473.227,406.268,457.282,401.28z"/>
<path fill="#F92D63" d="M475.627,342.647c-16.413-5.135-33.881,4.007-39.016,20.419c-5.135,16.413,4.008,33.881,20.42,39.016
	s33.88-4.008,39.016-20.42C501.182,365.25,492.039,347.782,475.627,342.647z M467.448,362.834
	c-8.349-1.234-14.612-5.643-13.991-9.847c0.621-4.205,7.894-6.613,16.242-5.378c8.35,1.234,14.613,5.643,13.991,9.848
	C483.07,361.661,475.798,364.069,467.448,362.834z"/>
<path fill="#FF994D" d="M415.573,425.203l106.351,57.362c0.386-0.661,0.766-1.327,1.129-2.008
	c15.741-29.385,4.642-66.098-24.743-81.84c-29.388-15.742-66.1-4.643-81.844,24.744C416.157,424.038,415.862,424.62,415.573,425.203
	z"/>
<path fill="#FFFFFF" d="M421.994,428.666l93.658,50.517c0.391-0.66,0.772-1.326,1.138-2.008
	c13.869-25.886,4.089-58.229-21.798-72.097c-25.888-13.869-58.229-4.091-72.098,21.799
	C422.577,427.468,422.286,428.067,421.994,428.666z"/>
<path fill="#FFD180" d="M421.346,428.317l94.952,51.213c0.393-0.659,0.775-1.326,1.141-2.007
	c14.082-26.287,4.187-59.012-22.1-73.093c-26.286-14.081-59.011-4.187-73.092,22.099C421.93,427.122,421.638,427.72,421.346,428.317
	z M512.039,468.753l-28.948-14.565l26.827,9.792c3.646-5.235,3.946-19.963,3.946-19.963
	C516.286,451.523,515.374,461.197,512.039,468.753z M511.086,433.71l-30.891,9.797l26.037-11.73
	c-1.047-6.296-11.12-17.044-11.12-17.044C502.091,418.415,508.193,425.974,511.086,433.71z M487.24,410.517
	c0,0-14.529-2.431-20.352,0.183l4.661,28.176l-8.957-31.145C470.635,405.854,480.309,406.746,487.24,410.517z M452.473,411.127
	c0,0-12.094,8.411-14.436,14.348l23.018,16.908l-28.165-16.031C437.332,419.394,444.878,413.274,452.473,411.127z"/>
<path fill="#FFB757" d="M420.763,428.001l95.979,51.768c0.389-0.653,0.767-1.314,1.128-1.988
	c14.231-26.569,4.229-59.646-22.337-73.878c-26.571-14.234-59.648-4.233-73.88,22.335
	C421.339,426.822,421.054,427.413,420.763,428.001z M513.986,472.891l-37.777-20.236l41.015-12.4
	C519.854,450.851,518.964,462.357,513.986,472.891z M515.792,435.503l-41.02,12.405l20.237-37.782
	C504.988,416.139,512.104,425.227,515.792,435.503z M490.635,407.783l-20.238,37.779l-12.4-41.02
	C468.596,401.917,480.104,402.801,490.635,407.783z M453.244,405.98l12.404,41.018l-37.777-20.237
	C433.879,416.779,442.966,409.664,453.244,405.98z"/>
<path fill="#68A329" d="M254.094,466.633l3.855,8.06l-5.968-5.268c-2.231,3.163-4.183,6.663-5.779,10.494l7.082,4.671l-8.289-1.52
	c-1.416,4.029-2.46,8.388-3.063,13.086l0.047,0.345c6.028,2.33,11.951,3.82,17.662,4.473l2.644-7.318l0.138,7.57
	c5.39,0.36,10.574-0.05,15.458-1.24l-0.855-9.392l4.342,8.395c9.191-3.032,17.194-8.996,23.347-17.939l-3.919-6.914l5.617,4.291
	c2.122-3.473,3.984-7.355,5.561-11.633l-2.735-3.741l3.357,1.99c1.244-3.639,2.292-7.549,3.117-11.743l-1.339-2.719
	c-6.903-2.85-14.567-4.015-22.258-3.507l-2.608,7.12l-0.089-6.872c-3.758,0.44-7.494,1.284-11.135,2.521l1.197,8.244l-4.205-7.129
	C267.289,454.209,259.913,459.439,254.094,466.633z"/>
<path fill="#3F8417" d="M254.094,466.633l3.855,8.06l-5.968-5.268c-2.231,3.163-4.183,6.663-5.779,10.494l7.082,4.671l-8.289-1.52
	c-1.416,4.029-2.46,8.388-3.063,13.086l0.047,0.345c0.004,0,0.007,0.006,0.011,0.006l73.426-43.812l-1.041-2.121
	c-6.903-2.848-14.569-4.01-22.259-3.501l-2.608,7.12l-0.089-6.872c-3.756,0.438-7.493,1.28-11.136,2.518l1.196,8.248l-4.204-7.132
	C267.289,454.209,259.913,459.439,254.094,466.633z"/>
<path fill="#FF7687" d="M350.254,494.453c-1.973,0.141-3.754-0.022-5.292-0.484c-13.335-4.013-16.499-21.157-17.719-33.703
	l-2.11-0.055c-0.197,1.336-0.38,2.735-0.568,4.178c-1.264,9.693-2.835,21.758-11.323,27.181c-5.143,3.279-11.309,5.46-16.493,5.832
	c-4.306,0.309-7.87-0.587-10.593-2.659c-2.783-2.115-3.992-4.681-3.698-7.841c1.172-12.6,25.561-29.999,33.147-33.803l-0.795-1.966
	c-6.848,2.151-17.906,4.716-28.407,5.469c-6.904,0.494-12.583,0.154-16.878-1.013c-4.436-1.207-5.743-4.208-6.058-6.512
	c-0.64-4.673,2.192-10.321,6.447-12.856c2.556-1.525,5.648-2.426,9.193-2.681c15.343-1.099,35.922,10.082,42.685,13.757l1.095-1.82
	c-2.849-1.893-21.028-16.086-22.503-17.713c-14.44-15.916-19.729-27.366-15.721-34.031c3.101-5.165,9.614-8.581,17.42-9.14
	c8.33-0.597,15.395,2.267,17.583,7.127c5.629,12.506,8.999,37.436,6.804,50.327l2.031,0.583c5.57-13.545,17.161-41.729,35.342-43.03
	c4.823-0.346,9.936,1.216,15.196,4.64c5.685,3.7,8.276,7.603,7.704,11.6c-1.656,11.58-29.253,23.831-52.382,30.801l-3.715,1.121
	l3.767,0.931c12.03,2.973,25.358,9.952,33.986,17.792c0.24,0.306,0.694,0.854,1.381,1.668c3.27,3.87,4.014,8.001,2.211,12.278
	c-3.243,7.688-13.856,13.458-21.735,14.023C350.255,494.453,350.255,494.453,350.254,494.453z"/>
<path fill="#F75772" d="M334.668,447.658c9.55-2.879,76.185-23.981,44.952-44.31c-27.636-17.988-43.617,18.247-52.102,38.877
	c2.245-13.185-1.102-38.098-6.883-50.942c-4.842-10.759-29.309-10.713-36.883,1.9c-6.215,10.334,9.207,27.979,15.844,35.295
	c1.665,1.836,22.93,18.38,23.057,18.074c-12.924-7.043-38.716-19.936-53.283-11.247c-7.687,4.584-10.935,18.369-0.123,21.31
	c12.442,3.379,33.717-0.646,45.882-4.468c-8.54,4.282-46.173,30.848-29.618,43.441c7.982,6.072,20.953,1.563,28.302-3.125
	c10.173-6.498,10.792-21.431,12.371-32.096c1.048,10.777,3.782,30.199,18.471,34.618c12.931,3.89,38.581-12.554,25.937-27.521
	C364.948,460.781,348,450.954,334.668,447.658z M376.732,420.597c-2.089,11.772-30.595,16.616-39.984,18.125
	c3.352-8.429,6.379-17.679,13.049-24.047C360.039,404.894,378.614,409.98,376.732,420.597z M304.066,396.14
	c20.655,0.101,18.863,26.065,16.948,40.535c-4.215-2.868-8.616-5.76-12.323-9.288C301.257,420.326,283.913,396.042,304.066,396.14z
	 M273.081,445.249c2.392-12.602,26.529-1.525,33.68,1.577C297.417,449.586,271.072,455.831,273.081,445.249z M292.162,484.761
	c0.101-13.852,16.854-19.627,27.119-26.649C318.443,484.729,292.059,498.835,292.162,484.761z M366.363,476.626
	c-3.405,5.04-14.418,10.913-20.637,9.176c-13.339-3.047-14.475-23.831-14.159-30.312
	C337.485,455.972,371.819,468.556,366.363,476.626C365.288,478.218,367.266,475.291,366.363,476.626z"/>
<path fill="#8C5928" d="M258.083,411.585c-1.174,0.41-2.133,1.221-2.613,2.36c-0.998,2.369,0.452,5.243,3.24,6.419
	c1.197,0.503,2.446,0.609,3.56,0.383c-0.303,2.96,1.676,6.079,5.013,7.484c3.963,1.668,8.324,0.292,9.744-3.078
	c0.033-0.076,0.053-0.155,0.082-0.233c2.881,1.999,5.971,4.134,9.303,6.431c11.878,8.187,35.347,17.364,36.394,15.297
	c-0.677-2.477-20.571-16.83-41.09-29.62c1.052-0.644,1.896-1.561,2.386-2.723c1.419-3.37-0.641-7.454-4.604-9.124
	c-2.953-1.245-6.126-0.793-8.139,0.911c-0.488-1.543-1.741-2.945-3.516-3.692c-2.934-1.237-6.166-0.216-7.217,2.28
	c-0.001,0.002-0.002,0.005-0.003,0.007C251.792,399.942,238.596,397.721,258.083,411.585z"/>
</svg>
