<?xml version="1.0"?>
<svg width="300" height="200" xmlns="http://www.w3.org/2000/svg" xmlns:svg="http://www.w3.org/2000/svg">
 <g>
  <title>Layer 1</title>
  <path id="svg_2" d="m210.39242,54.67567l0,5.451l-7.173,0l0,-5.557c0,-1.15 -7.463,-1.15 -7.463,0l0,5.557l-7.388,0l0,-5.451c0,-1.15 -7.462,-1.15 -7.462,0l0,10.895c0,0.60599 0.254,1.146 0.652,1.527l0.824,0.472c0.172,0.049 0.349,0.084 0.536,0.084l3.438,0c0.085,0 0.165,-0.01601 0.247,-0.026l1.387,0.019l-0.721,30.959l-14.043,0l-0.564,-43.533c0,0 6.614,-0.017 7.118,-0.017s-0.034,-16.993 -0.034,-16.993c-0.427,-0.614 -8.761,-0.82 -8.761,0.331l0,6.467l-9.993,0l0,-6.892c0,-1.15 -9.947,-1.15 -9.947,0l0,6.892l-10.463,0l0,-7.209c0,-1.15 -3.233,-1.341 -3.233,-1.341l0,-35.146l-3.526,0l0,35.146c0,0 -3.186,0.191 -3.186,1.341l0,7.209l-9.565,0l0,-7.316c0,-1.15 -9.947,-1.15 -9.947,0l0,7.316l-10.271,0l0,-7.209c0,-1.15 -9.948,-1.15 -9.948,0l0.081,17.556l7.138,-0.044l-0.098,44.157l-13.729,0l-0.508,-31.583l3.41,-0.03l0.565,0c0.018,0 0.033,-0.005 0.052,-0.006l1.006,-0.312c0.57,-0.368 0.954,-1.018 0.954,-1.765l0,-10.896c0,-1.15 -7.464,-1.15 -7.464,0l0,5.546l-7.174,0l0,-5.652c0,-1.15 -7.463,-1.15 -7.463,0l0,5.652l-7.387,0l0,-5.546c0,-1.15 -7.463,-1.15 -7.463,0l0,10.895c0,0.691 0.473,1.646 0.975,2.024l5.843,0.044l4.681,106.29599l34.172,0.256c0.005,0.049 0.008,0.099 0.011,0.147l74.021,0c0.003,-0.05 0.008,-0.099 0.011,-0.147l33.881,0.102l4.681,-106.74299l0.874,0c0.139,0.031 0.281,0.051 0.431,0.051l3.438,0c1.586,-0.068 2.013,-1.309 2.013,-2.083l0,-10.895c-0.001,-1.15 -7.466,-1.15 -7.466,0z" fill="#A08362"/>
  <path id="svg_3" d="m186.85991,67.45072l0,29.901l-9.639,0l0.082,-42.39l-35.943,-0.063l-8.252,0l-35.784,0.151l-0.077,42.301l-9.638,0l0,-29.753l-27.906,-0.063l4.685,106.835l40.898,0.314c-0.145,-1.803 -0.224,-3.633 -0.224,-5.49c0,-27.849 11.587,-50.739 32.172,-50.739c20.585,0 31.917,22.355 31.917,50.206c0,1.854 0.018,3.965 -0.128,5.769l41.056,-0.06l4.746,-106.919l-27.965,0l0,0zm-119.273,16.536c0,-5.399 3.153,-9.777 7.042,-9.777c3.89,0 7.043,4.378 7.043,9.777c0,0.395 -0.017,0.781 -0.048,1.163l-13.987,0c-0.034,-0.382 -0.05,-0.769 -0.05,-1.163zm17.488,70.654l-13.986,0c-0.032,-0.383 -0.05,-0.769 -0.05,-1.162c0,-5.4 3.154,-9.778 7.044,-9.778c3.889,0 7.042,4.378 7.042,9.778c0.001,0.393 -0.016,0.779 -0.05,1.162zm12.918,-27.337l-10.748,0l0,-18.411l10.748,0l0,18.411zm21.407,-47.624l-10.748,0l0,-18.412l10.748,0l0,18.412l0,0zm28.261,25.392l-20.856,0l0,-18.411l20.856,0l0,18.411zm19.308,-25.392l-10.748,0l0,-18.412l10.748,0l0,18.412zm9.506,29.213l10.746,0l0,18.411l-10.746,0l0,-18.411l0,0zm24.379,45.748l-13.986,0c-0.031,-0.383 -0.05,-0.769 -0.05,-1.162c0,-5.4 3.155,-9.778 7.045,-9.778s7.042,4.378 7.042,9.778c-0.002,0.393 -0.018,0.779 -0.051,1.162zm7.043,-69.491l-13.987,0c-0.031,-0.381 -0.049,-0.768 -0.049,-1.163c0,-5.399 3.152,-9.777 7.042,-9.777s7.045,4.378 7.045,9.777c-0.001,0.394 -0.018,0.781 -0.051,1.163z" fill="#BCA484"/>
  <path id="svg_4" d="m170.43221,12.32264c0,0 -19.627,21.562 -19.94,11.755c-0.316,-9.808 -16.745,5.02 -16.745,5.02l0.109,-29.03601c0,0 18.091,-1.741 15.998,5.104c-2.092,6.847 20.578,7.157 20.578,7.157l0,0.00001z" fill="#14A4BC"/>
  <path id="svg_5" d="m251.14398,124.55603c-3.753,-0.235 -7.295,1.132 -10.861,-0.666c-2.479,-1.251 -4.43,-3.374 -7.316,-3.661c-2.073,-0.207 -4.185,1.003 -5.363,2.63c-1.364,1.883 -0.035,3.996 1.518,5.183c0.074,0.229 0.26,0.418 0.583,0.475c11.901,2.05 23.835,3.898 35.771,5.744c0.069,0.01 0.135,0.013 0.198,0.01c0.347,0.137 0.753,0.06 0.952,-0.385c3.425,-7.624 -10.963,-9.048 -15.482,-9.33z" fill="#CEB79B"/>
  <g stroke="null" id="svg_6">
   <path stroke="null" id="svg_7" d="m264.15385,120.01199c0,0 0,-0.002 0,-0.002s-0.001,-0.001 -0.001,-0.002l0.001,0.004z" fill="#14A4BC"/>
   <path stroke="null" id="svg_8" d="m247.83585,135.91999c-0.572,-0.568 -1.173,-1.163 -1.796,-1.772c-0.674,-0.854 -6.229,2.414 -12.42,7.306l-0.101,0.016l12.358,12.552c4.707,-5.977 7.903,-11.36 7.361,-12.341l-0.129,-0.215c-0.175,-0.262 -0.757,-0.912 -1.63,-1.83l0.003,-0.008c0,0 15.079,-15.385 15.979,-16.303c1.88,0.988 3.889,0.982 5.063,-0.188c1.586,-1.585 1.043,-4.702 -1.214,-6.963c-2.258,-2.259 -5.375,-2.807 -6.961,-1.222c-1.172,1.17 -1.182,3.18 -0.196,5.059c0.001,0.002 0.002,0.002 0.003,0.004c-0.002,0.002 -0.004,0.005 -0.006,0.006l0,0c-0.982,0.955 -16.314,15.899 -16.314,15.899zm18.226,-19.328c0.889,-0.889 2.689,-0.525 4.021,0.807c1.333,1.334 1.692,3.134 0.803,4.021c-0.889,0.889 -2.69,0.527 -4.021,-0.806s-1.692,-3.134 -0.803,-4.022z" fill="#14A4BC"/>
  </g>
  <path id="svg_9" d="m266.39074,131.20306l-38.243,-5.914c-2.358,-0.364 -4.46,0.573 -4.695,2.096l-0.545,3.527c-0.235,1.521 1.485,3.05 3.843,3.414l0.238,0.038l-1.573,39.489l29.555,4.592l9.723,-38.252l0.299,0.047c2.358,0.364 4.46,-0.573 4.695,-2.094l0.545,-3.529c0.236,-1.521 -1.484,-3.049 -3.842,-3.414z" fill="#EB7925"/>
  <polygon id="svg_10" points="226.47930300235748,147.4442932009697 227.0213257074356,135.19533079862595 264.48131716251373,140.98732298612595 261.45632326602936,152.85232847929 " fill="#F9CF58"/>
  <path id="svg_11" d="m137.76971,195.08518c-0.018,-0.19499 -0.027,-0.386 -0.027,-0.571c0,-4.526 4.674,-8.208 10.419,-8.208c2.628,0 5.139,0.77501 7.071,2.184c0.076,0.05501 0.165,0.083 0.256,0.083c0.052,0 0.104,-0.00899 0.155,-0.02799c0.137,-0.053 0.239,-0.171 0.27,-0.314c1.288,-6.006 6.818,-10.365 13.152,-10.365c5.869,0 11.012,3.64099 12.797,9.062c0.044,0.135 0.153,0.24 0.29,0.28c0.04,0.013 0.082,0.018 0.122,0.018c0.099,0 0.197,-0.034 0.274,-0.098c1.922,-1.56701 4.415,-2.43101 7.018,-2.43101c5.745,0 10.419,4.18 10.419,9.314c0,0.357 -0.023,0.717 -0.069,1.074l-62.147,0z" fill="#CEB79B"/>
  <path id="svg_12" d="m189.03883,183.77474c-2.807,0 -5.364,0.957 -7.292,2.527c-1.788,-5.43 -7.025,-9.361 -13.209,-9.361c-6.686,0 -12.265,4.594 -13.576,10.709c-1.931,-1.407 -4.502,-2.268 -7.327,-2.268c-5.994,0 -10.853,3.869 -10.853,8.643c0,0.34 0.027,0.675 0.075,1.004l62.906,0c0.084,-0.49 0.129,-0.994 0.129,-1.506c0,-5.384 -4.859,-9.748 -10.853,-9.748zm3.413,8.405c-1.659,-1.393 -3.887,-2.248 -6.338,-2.248c-2.401,0 -4.589,0.818 -6.238,2.162c-1.53,-4.645 -6.01,-8.009 -11.301,-8.009c-5.72,0 -10.494,3.931 -11.616,9.163c-1.651,-1.205 -3.852,-1.939 -6.268,-1.939c-2.337,0 -4.47,0.688 -6.101,1.822c-0.871,0.016 -1.741,0.043 -2.61,0.083c1.31,-2.819 4.715,-4.829 8.711,-4.829c2.416,0 4.616,0.734 6.268,1.939c1.122,-5.231 5.896,-9.162 11.616,-9.162c5.292,0 9.771,3.363 11.301,8.01c1.649,-1.346 3.837,-2.164 6.238,-2.164c3.919,0 7.27,2.184 8.632,5.268c-0.765,-0.024 -1.529,-0.055 -2.294,-0.096z" fill="#BCA484"/>
  <path id="svg_13" d="m42.96304,202.12725c-0.024,-0.271 -0.037,-0.539 -0.037,-0.798c0,-6.322 6.529,-11.465 14.554,-11.465c3.671,0 7.179,1.083 9.877,3.05c0.105,0.076 0.23,0.116 0.357,0.116c0.073,0 0.146,-0.013 0.217,-0.04c0.191,-0.073 0.333,-0.238 0.376,-0.438c1.799,-8.39 9.525,-14.48 18.372,-14.48c8.198,0 15.381,5.089 17.875,12.66c0.062,0.188 0.214,0.337 0.406,0.392c0.056,0.016 0.113,0.025 0.169,0.025c0.139,0 0.274,-0.049 0.383,-0.137c2.686,-2.188 6.167,-3.395 9.802,-3.395c8.025,0 14.554,5.836 14.554,13.01c0,0.499 -0.032,1.002 -0.096,1.5l-86.809,0z" fill="#CEB79B"/>
  <path id="svg_14" d="m116.17408,186.38748c-3.92,0 -7.493,1.338 -10.185,3.531c-2.497,-7.584 -9.812,-13.076 -18.451,-13.076c-9.339,0 -17.133,6.417 -18.964,14.959c-2.697,-1.967 -6.289,-3.168 -10.234,-3.168c-8.373,0 -15.16,5.406 -15.16,12.072c0,0.477 0.038,0.943 0.105,1.404l87.87,0c0.119,-0.686 0.181,-1.39 0.181,-2.105c-0.001,-7.519 -6.789,-13.617 -15.162,-13.617zm4.768,11.742c-2.318,-1.947 -5.43,-3.141 -8.854,-3.141c-3.354,0 -6.411,1.144 -8.714,3.02c-2.137,-6.488 -8.396,-11.188 -15.786,-11.188c-7.99,0 -14.659,5.492 -16.225,12.799c-2.308,-1.682 -5.38,-2.709 -8.756,-2.709c-3.263,0 -6.243,0.961 -8.522,2.545c-1.216,0.023 -2.431,0.061 -3.646,0.117c1.829,-3.939 6.587,-6.747 12.168,-6.747c3.375,0 6.448,1.028 8.756,2.71c1.566,-7.307 8.235,-12.797 16.225,-12.797c7.391,0 13.649,4.697 15.786,11.186c2.303,-1.875 5.359,-3.02 8.714,-3.02c5.475,0 10.154,3.049 12.057,7.357c-1.068,-0.032 -2.135,-0.075 -3.203,-0.132z" fill="#BCA484"/>
  <path id="svg_15" d="m0.52858,182.13511c-0.018,-0.195 -0.027,-0.386 -0.027,-0.572c0,-4.525 4.674,-8.207 10.419,-8.207c2.628,0 5.139,0.774 7.071,2.184c0.076,0.055 0.165,0.083 0.256,0.083c0.052,0 0.104,-0.009 0.155,-0.028c0.137,-0.053 0.238,-0.172 0.269,-0.314c1.288,-6.007 6.819,-10.366 13.152,-10.366c5.869,0 11.012,3.642 12.797,9.062c0.044,0.136 0.153,0.241 0.29,0.282c0.041,0.01 0.082,0.017 0.122,0.017c0.099,0 0.197,-0.034 0.275,-0.098c1.922,-1.567 4.415,-2.431 7.017,-2.431c5.745,0 10.419,4.179 10.419,9.314c0,0.357 -0.023,0.717 -0.069,1.074l-62.146,0z" fill="#CEB79B"/>
  <path id="svg_16" d="m51.86443,170.76907c-2.807,0 -5.365,0.957 -7.292,2.526c-1.788,-5.43 -7.024,-9.36 -13.209,-9.36c-6.686,0 -12.265,4.594 -13.576,10.708c-1.931,-1.407 -4.502,-2.267 -7.327,-2.267c-5.994,0 -10.853,3.869 -10.853,8.642c0,0.341 0.027,0.675 0.075,1.005l62.906,0c0.084,-0.49 0.129,-0.994 0.129,-1.507c0,-5.384 -4.859,-9.747 -10.853,-9.747zm3.413,8.404c-1.659,-1.395 -3.887,-2.248 -6.338,-2.248c-2.401,0 -4.589,0.818 -6.238,2.162c-1.53,-4.645 -6.01,-8.009 -11.302,-8.009c-5.72,0 -10.494,3.931 -11.615,9.161c-1.652,-1.203 -3.852,-1.939 -6.268,-1.939c-2.336,0 -4.469,0.688 -6.101,1.822c-0.87,0.018 -1.74,0.044 -2.61,0.085c1.31,-2.819 4.716,-4.831 8.711,-4.831c2.417,0 4.616,0.736 6.268,1.939c1.122,-5.229 5.896,-9.161 11.615,-9.161c5.292,0 9.771,3.364 11.302,8.009c1.649,-1.344 3.837,-2.162 6.238,-2.162c3.919,0 7.269,2.184 8.632,5.268c-0.765,-0.024 -1.53,-0.055 -2.294,-0.096z" fill="#BCA484"/>
  <path id="svg_17" d="m212.27238,178.58108c-0.02,-0.225 -0.031,-0.445 -0.031,-0.657c0,-5.202 5.374,-9.436 11.976,-9.436c3.021,0 5.908,0.892 8.128,2.511c0.086,0.063 0.189,0.096 0.293,0.096c0.061,0 0.122,-0.01 0.178,-0.032c0.159,-0.062 0.275,-0.196 0.311,-0.362c1.48,-6.904 7.837,-11.914 15.117,-11.914c6.746,0 12.658,4.187 14.71,10.417c0.051,0.155 0.175,0.276 0.333,0.323c0.046,0.013 0.093,0.02 0.14,0.02c0.113,0 0.225,-0.039 0.314,-0.112c2.21,-1.802 5.075,-2.793 8.066,-2.793c6.604,0 11.976,4.803 11.976,10.706c0,0.41 -0.027,0.822 -0.079,1.234l-71.432,0l0,-0.001z" fill="#CEB79B"/>
  <path id="svg_18" d="m272.07352,166.25573c-3.227,0 -6.167,1.1 -8.381,2.905c-2.056,-6.241 -8.075,-10.761 -15.184,-10.761c-7.686,0 -14.099,5.281 -15.606,12.311c-2.219,-1.619 -5.175,-2.607 -8.421,-2.607c-6.889,0 -12.475,4.447 -12.475,9.935c0,0.392 0.032,0.776 0.087,1.155l72.307,0c0.098,-0.564 0.148,-1.144 0.148,-1.733c0,-6.189 -5.585,-11.205 -12.475,-11.205zm3.923,9.661c-1.907,-1.603 -4.468,-2.585 -7.286,-2.585c-2.76,0 -5.275,0.941 -7.17,2.486c-1.75901,-5.34 -6.909,-9.207 -12.991,-9.207c-6.575,0 -12.062,4.52 -13.351,10.532c-1.898,-1.384 -4.428,-2.229 -7.205,-2.229c-2.686,0 -5.137,0.791 -7.012,2.095c-1.001,0.021 -2.001,0.05 -3.001,0.097c1.50499,-3.242 5.41999,-5.552 10.013,-5.552c2.77699,0 5.30699,0.845 7.205,2.229c1.289,-6.012 6.776,-10.531 13.351,-10.531c6.082,0 11.23199,3.867 12.991,9.206c1.89499,-1.544 4.41,-2.485 7.17,-2.485c4.505,0 8.356,2.509 9.922,6.055c-0.879,-0.028 -1.757,-0.063 -2.636,-0.111z" fill="#BCA484"/>
 </g>
</svg>